<svg width="96" height="96" viewBox="0 0 96 96" fill="none" xmlns="http://www.w3.org/2000/svg">
  <rect width="96" height="96" rx="24" fill="#1D9BF0"/>
  <path d="M30.5 52.5C30.5 49.4624 32.9624 47 36 47H60C63.0376 47 65.5 49.4624 65.5 52.5V60C65.5 61.3807 64.3807 62.5 63 62.5H61.5V64C61.5 65.1046 60.6046 66 59.5 66H57.5C56.3954 66 55.5 65.1046 55.5 64V62.5H40.5V64C40.5 65.1046 39.6046 66 38.5 66H36.5C35.3954 66 34.5 65.1046 34.5 64V62.5H33C31.6193 62.5 30.5 61.3807 30.5 60V52.5Z" fill="white"/>
  <path d="M37.75 39.5C38.2159 38.1022 39.5238 37.1582 40.9972 37.1582H55.0028C56.4762 37.1582 57.7841 38.1022 58.25 39.5L60.75 47H35.25L37.75 39.5Z" fill="white"/>
  <rect x="37.5" y="51" width="8" height="4.5" rx="1.5" fill="#1D9BF0"/>
  <rect x="50.5" y="51" width="8" height="4.5" rx="1.5" fill="#1D9BF0"/>
  <circle cx="39.5" cy="58" r="2.5" fill="#1D9BF0"/>
  <circle cx="56.5" cy="58" r="2.5" fill="#1D9BF0"/>
</svg>
